<?xml version="1.0" encoding="utf-8"?>
<!-- Generator: Adobe Illustrator 22.0.1, SVG Export Plug-In . SVG Version: 6.00 Build 0)  -->
<svg version="1.1" id="POB_x5F_logo" xmlns="http://www.w3.org/2000/svg" xmlns:xlink="http://www.w3.org/1999/xlink" x="0px"
	 y="0px" viewBox="0 0 1077.4 561.2" style="enable-background:new 0 0 1077.4 561.2;" xml:space="preserve">
<g>
	<g>
		<path d="M1022.1,439.8L862.5,0.3L862.4,0h-3.2l-32.9,90.3l-59.8,164.4l-0.1-0.1c-20.7-18.3-50-29.7-86.8-34l-11.2-1.2l11.2-1.4
			c60.8-10.9,101.6-49.3,101.6-95.5C781.1,59,721.4,14.8,636,14.8H458.2V18h51.7v327.6L384.5,0.3L384.3,0h-3.1l-32.9,90.3
			L221.5,438.6l-0.8,0.1c-2.2,0.3-4.3,0.5-6.4,0.6c-3.2,0.3-6.4,0.4-9.5,0.4H76.7L320.2,18l1.8-3.2H24.2v130.5h3.2
			C27.9,81.8,64.9,18,146.7,18h98.6L0,442.9h330.5v-125h-3.2c-0.4,55.4-31.8,108-100.1,119.9l-2.2,0.4l52-142.9h145.7l52.5,144.5
			h-51.8v3.2h203.2v-3.2h-52v-218h60c61.1,0,96.1,27.3,96.1,74.8v38.7c0,4.3,0.3,10.5,0.6,15.7v0.2l-32.3,88.6H657v3.2h87.2v-3.2
			h-41.7l29.4-80.7c0.1,0.8,0.1,1.3,0.1,1.3l0.8,7.3l0.8,4.8c4.9,29.8,16.3,51.6,33.8,65l2.5,1.8c13.3,9.3,29.9,14,49.2,14
			c25.6,0,42.7-6.4,56.8-21.4l-1.9-1.7c-13,12-23.9,16.9-37.6,16.9c-23.3,0-35.5-28.3-35.5-56.1v-54.2c0.1-13.4-2-26.8-6.2-39.6
			l-0.6-1.7v-0.1h106.5l52.5,144.5h-51.8v3.2h175.9v-3.2L1022.1,439.8z M278.2,292.1L350,94.9l71.6,197.1H278.2z M574.7,218.6V18
			h45.8c61.2,0,93.5,36.4,93.5,105.1c0,73.1-18.5,95.4-79.3,95.4H574.7z M793,292.1l-0.3-0.8c-4.7-11.5-11.6-22.1-20.3-31l-3-3
			l-0.3-0.3L828,94.9l71.6,197.1H793z"/>
		<path d="M343.8,510.2l6.6-18.5l-1.4-0.3c-0.4,0.8-0.9,1.4-1.5,2c-0.6,0.5-1.5,0.8-2.5,0.8c-1,0-2-0.2-3-0.6
			c-1-0.4-2.2-0.8-3.5-1.2c-1.2-0.5-2.6-1-4.2-1.3c-1.6-0.4-3.5-0.6-5.6-0.6c-2.8,0-5.8,0.5-8.8,1.6c-3.1,1.1-6.1,2.6-9.1,4.5
			c-2.9,1.9-5.8,4.2-8.4,6.9c-2.7,2.7-5.1,5.7-7.1,8.9c-2,3.2-3.6,6.6-4.8,10.3c-1.2,3.6-1.7,7.4-1.7,11.3c0,3.5,0.4,6.8,1.2,10.1
			c0.8,3.3,2.1,6.2,3.9,8.7c1.9,2.5,4.3,4.5,7.2,6.1c3,1.5,6.7,2.3,11,2.3c3.6,0,6.7-0.6,9.3-1.9c2.6-1.3,4.8-2.9,6.6-4.6
			c1.9-1.7,3.3-3.4,4.3-5.1c1-1.7,1.7-3,2.1-3.7l-1.2-0.7c-0.8,1.4-1.8,3-3,4.7c-1.2,1.7-2.6,3.3-4.3,4.8c-1.7,1.5-3.7,2.7-6,3.7
			s-4.8,1.5-7.7,1.5c-5.2,0-9.2-1.2-12-3.7c-2.8-2.6-4.2-6.4-4.2-11.6c0-2.6,0.3-5.6,1-9.2c0.7-3.6,1.7-7.3,3-11.2
			c1.3-3.9,2.9-7.8,4.8-11.6c1.9-3.9,4.1-7.4,6.4-10.5c2.4-3.1,5.1-5.6,8-7.5c2.9-1.9,6-2.9,9.3-2.9c2,0,4,0.3,5.8,0.8
			c1.8,0.4,3.3,1.2,4.6,2.1c1.3,1,2.4,2.2,3.2,3.7c0.8,1.5,1.2,3.2,1.2,5.3c0,1.3-0.1,2.5-0.2,3.7c-0.1,1.2-0.3,2.1-0.4,2.8H343.8z
			 M358.4,544.8c0-2.8,0.3-6,1-9.7c0.7-3.7,1.7-7.5,3-11.4c1.3-4,2.9-7.8,4.8-11.6c1.9-3.8,4.1-7.3,6.6-10.3s5.2-5.4,8.3-7.3
			c3.1-1.9,6.4-2.8,10-2.8c5.2,0,9,1.4,11.3,4.1c2.4,2.8,3.6,6.6,3.6,11.6c0,2.4-0.3,5.4-1,9c-0.6,3.5-1.5,7.2-2.7,11.1
			c-1.2,3.9-2.7,7.8-4.5,11.6c-1.9,3.8-4,7.3-6.5,10.4c-2.4,3.1-5.2,5.6-8.4,7.5c-3.1,1.9-6.5,2.9-10.3,2.9c-3,0-5.5-0.4-7.5-1.2
			c-1.9-0.8-3.5-1.9-4.6-3.3c-1.2-1.4-2-3-2.4-4.9C358.6,548.7,358.4,546.8,358.4,544.8z M351.1,533.8c0,4.5,0.5,8.4,1.6,11.9
			c1.1,3.4,2.6,6.2,4.5,8.5c1.9,2.3,4.2,4.1,6.9,5.3c2.7,1.2,5.6,1.7,8.8,1.7c3.6,0,7.1-0.6,10.5-1.7c3.5-1.2,6.7-2.8,9.8-4.8
			c3.1-2,5.9-4.4,8.5-7.2c2.6-2.8,4.9-5.7,6.7-8.8c1.9-3.2,3.4-6.5,4.4-10c1.1-3.5,1.6-7,1.6-10.5c0-3.2-0.4-6.4-1.2-9.7
			c-0.8-3.3-2-6.3-3.8-9c-1.7-2.7-4-4.9-6.9-6.5c-2.8-1.7-6.3-2.6-10.5-2.6c-3.2,0-6.4,0.6-9.7,1.7c-3.3,1.1-6.4,2.6-9.5,4.6
			c-3,2-5.9,4.4-8.5,7.1c-2.7,2.7-5,5.7-7,8.9c-1.9,3.2-3.5,6.6-4.6,10.2C351.7,526.5,351.1,530.1,351.1,533.8z M445.5,493
			L422,558.7h-9.9l-0.4,1.3h55.8l6.7-18.8h-1.3c-0.6,1-1.5,2.4-2.7,4.4c-1.2,1.9-2.6,3.9-4.3,5.9c-1.7,1.9-3.6,3.6-5.8,5.1
			c-2.2,1.4-4.5,2.1-7,2.1h-22.5l23.5-65.7h10.1l0.4-1.3h-29.8l-0.4,1.3H445.5z M506,493l-23.5,65.7h-9.9l-0.4,1.3H528l6.7-18.8
			h-1.3c-0.6,1-1.5,2.4-2.7,4.4c-1.2,1.9-2.6,3.9-4.3,5.9c-1.7,1.9-3.6,3.6-5.8,5.1c-2.2,1.4-4.5,2.1-7,2.1h-22.5l23.5-65.7h10.1
			l0.4-1.3h-29.8l-0.4,1.3H506z M566.3,493l-23.5,65.7h-9.9l-0.4,1.3h55.8l6.7-18.8h-1.3c-0.5,1-1.3,2.4-2.5,4.3
			c-1.2,1.9-2.6,3.9-4.3,5.9c-1.7,1.9-3.6,3.6-5.9,5.1c-2.2,1.5-4.5,2.2-7.1,2.2h-22.5l12.4-34.7h6.5c2.4,0,4.4,0.6,5.8,1.9
			c1.4,1.2,2.1,3,2.1,5.5c0,1.2-0.1,2.5-0.4,3.8c-0.3,1.3-0.5,2.4-0.9,3.2h1.3l10.1-27.9h-1.3c-0.3,0.6-0.8,1.5-1.5,2.9
			s-1.6,2.7-2.8,4.1c-1.1,1.3-2.4,2.6-4,3.6c-1.5,1-3.3,1.5-5.4,1.5h-9L575,493h20.3c3.1,0,5.1,0.8,6.1,2.3c1,1.5,1.5,3.4,1.5,5.8
			c0,1.2-0.1,2.5-0.4,3.8s-0.5,2.4-0.8,3.1h1.3l5.9-16.3h-53.4l-0.4,1.3H566.3z M667.4,510.2l6.6-18.5l-1.4-0.3
			c-0.4,0.8-0.9,1.4-1.5,2c-0.6,0.5-1.5,0.8-2.5,0.8c-1,0-2-0.2-3-0.6s-2.2-0.8-3.5-1.2c-1.2-0.5-2.6-1-4.2-1.3
			c-1.6-0.4-3.5-0.6-5.6-0.6c-2.8,0-5.8,0.5-8.8,1.6c-3.1,1.1-6.1,2.6-9.1,4.5c-2.9,1.9-5.8,4.2-8.4,6.9c-2.7,2.7-5.1,5.7-7.1,8.9
			c-2,3.2-3.6,6.6-4.8,10.3c-1.2,3.6-1.7,7.4-1.7,11.3c0,3.5,0.4,6.8,1.2,10.1c0.8,3.3,2.1,6.2,3.9,8.7c1.9,2.5,4.3,4.5,7.2,6.1
			c3,1.5,6.7,2.3,11,2.3c3.6,0,6.7-0.6,9.3-1.9c2.6-1.3,4.8-2.9,6.6-4.6c1.9-1.7,3.3-3.4,4.3-5.1c1-1.7,1.7-3,2.1-3.7l-1.2-0.7
			c-0.8,1.4-1.8,3-3,4.7c-1.2,1.7-2.6,3.3-4.3,4.8c-1.7,1.5-3.7,2.7-6,3.7s-4.8,1.5-7.7,1.5c-5.2,0-9.2-1.2-12-3.7
			c-2.8-2.6-4.2-6.4-4.2-11.6c0-2.6,0.3-5.6,1-9.2c0.7-3.6,1.7-7.3,3-11.2c1.3-3.9,2.9-7.8,4.8-11.6c1.9-3.9,4.1-7.4,6.4-10.5
			c2.4-3.1,5.1-5.6,8-7.5c2.9-1.9,6-2.9,9.3-2.9c2,0,4,0.3,5.8,0.8c1.8,0.4,3.3,1.2,4.6,2.1c1.3,1,2.4,2.2,3.2,3.7
			c0.8,1.5,1.2,3.2,1.2,5.3c0,1.3-0.1,2.5-0.2,3.7c-0.1,1.2-0.3,2.1-0.4,2.8H667.4z M708.4,493l-23.5,65.7h-10.1l-0.4,1.3h29.7
			l0.4-1.3h-10.9l23.5-65.7h9.5c3.3,0,5.5,0.9,6.8,2.6c1.3,1.7,2,3.7,2,6.1c0,1.5-0.1,3.1-0.2,4.6s-0.4,2.9-0.7,4.2h1.3l6.7-18.9
			h-57.9l-6.7,18.9h1.3c0.6-1,1.4-2.4,2.5-4.3c1.2-2,2.6-3.9,4.2-5.9c1.7-2,3.6-3.7,5.8-5.2c2.2-1.5,4.6-2.2,7.2-2.2H708.4z
			 M727.2,558.7l-0.4,1.3h29.5l0.4-1.3h-10.9l23.5-65.7h10.1l0.4-1.3H750l-0.4,1.3h11L737,558.7H727.2z M785.1,544.8
			c0-2.8,0.3-6,1-9.7c0.7-3.7,1.7-7.5,3-11.4c1.3-4,2.9-7.8,4.8-11.6c1.9-3.8,4.1-7.3,6.6-10.3c2.5-3,5.2-5.4,8.3-7.3
			c3.1-1.9,6.4-2.8,10-2.8c5.2,0,9,1.4,11.3,4.1c2.4,2.8,3.6,6.6,3.6,11.6c0,2.4-0.3,5.4-1,9c-0.6,3.5-1.5,7.2-2.7,11.1
			c-1.2,3.9-2.7,7.8-4.5,11.6c-1.9,3.8-4,7.3-6.5,10.4c-2.4,3.1-5.2,5.6-8.4,7.5c-3.1,1.9-6.5,2.9-10.3,2.9c-3,0-5.5-0.4-7.5-1.2
			c-1.9-0.8-3.5-1.9-4.6-3.3c-1.2-1.4-2-3-2.4-4.9C785.3,548.7,785.1,546.8,785.1,544.8z M777.8,533.8c0,4.5,0.5,8.4,1.6,11.9
			c1.1,3.4,2.6,6.2,4.5,8.5s4.2,4.1,6.9,5.3c2.7,1.2,5.6,1.7,8.8,1.7c3.6,0,7.1-0.6,10.5-1.7c3.5-1.2,6.7-2.8,9.8-4.8
			c3.1-2,5.9-4.4,8.5-7.2c2.6-2.8,4.9-5.7,6.7-8.8c1.9-3.2,3.4-6.5,4.4-10c1.1-3.5,1.6-7,1.6-10.5c0-3.2-0.4-6.4-1.2-9.7
			c-0.8-3.3-2-6.3-3.8-9c-1.7-2.7-4-4.9-6.9-6.5c-2.8-1.7-6.3-2.6-10.5-2.6c-3.2,0-6.4,0.6-9.7,1.7c-3.3,1.1-6.4,2.6-9.5,4.6
			c-3,2-5.9,4.4-8.5,7.1c-2.7,2.7-5,5.7-7,8.9c-1.9,3.2-3.5,6.6-4.6,10.2C778.3,526.5,777.8,530.1,777.8,533.8z M871.8,496.4
			l16.5,64.8h0.7l24.2-68.3h9.9l0.4-1.3H901l-0.4,1.3h11l-18.8,52.8h-0.2L879,491.6h-18.1l-0.4,1.3h10.9L848,558.7h-9.8l-0.4,1.3
			H860l0.4-1.3h-10.9l22.2-62.2H871.8z M968,500.1l-16.3,58.6h-9.2l-0.4,1.3h26.2l0.4-1.3h-10.3l18.5-66.2h-1.3
			c-1.5,1.5-3.3,3-5.5,4.5c-2.1,1.5-4.3,3-6.6,4.4c-2.3,1.3-4.5,2.6-6.7,3.6c-2.1,1.1-3.9,1.9-5.3,2.5l0.7,1.2
			c1-0.4,2.1-0.9,3.4-1.5c1.3-0.6,2.7-1.3,4.1-2.1c1.5-0.8,2.9-1.7,4.3-2.5C965.4,501.7,966.8,500.9,968,500.1z M997.3,522.9
			c0-2.5,0.3-5.4,1-8.7c0.6-3.4,1.6-6.6,3-9.6c1.3-3,3-5.6,5.1-7.7c2.1-2.1,4.6-3.2,7.5-3.2c3.3,0,5.6,0.8,6.9,2.3
			c1.4,1.5,2,3.7,2,6.6c0,2.3-0.2,4.6-0.7,6.8c-0.4,2.2-0.9,4.4-1.5,6.6c-0.6,2.2-1.3,4.3-2.1,6.4c-0.7,2.1-1.4,4.2-2,6.3
			c-1.3,1.2-2.8,2.4-4.7,3.5c-1.8,1.1-3.8,1.6-6,1.6c-3.1,0-5.3-1-6.5-2.9C997.9,529.2,997.3,526.5,997.3,522.9z M1015.4,531.9
			l-1.7,5c-1.5,4.2-2.9,7.8-4.1,10.7c-1.3,2.9-2.6,5.2-4,7c-1.3,1.7-2.8,3-4.4,3.7c-1.5,0.8-3.3,1.2-5.4,1.2c-1.3,0-2.7-0.2-3.9-0.5
			c-1.2-0.3-1.8-1.2-1.8-2.5c0-0.4,0-0.8,0-1.1c0.1-0.3,0.1-0.5,0.2-0.7c0.1-0.2,0.1-0.4,0.1-0.7c0.1-0.3,0.1-0.6,0.1-1
			c0-0.8-0.4-1.4-1.1-2c-0.6-0.6-1.6-1-2.8-1c-1.3,0-2.3,0.3-3,0.9c-0.8,0.6-1.2,1.6-1.2,3.1c0,0.8,0.2,1.7,0.6,2.6
			c0.4,0.8,1,1.6,1.9,2.3c1,0.7,2.2,1.2,3.6,1.6c1.5,0.4,3.3,0.7,5.4,0.7c2.9,0,5.7-0.8,8.5-2.3c2.8-1.5,5.5-3.6,8.1-6.2
			c2.6-2.6,5-5.7,7.2-9.1c2.2-3.5,4.2-7.1,5.8-10.8c1.7-3.8,3-7.7,3.8-11.7c1-4,1.4-7.9,1.4-11.5c0-2.2-0.3-4.4-0.9-6.4
			c-0.5-2-1.4-3.9-2.6-5.5c-1.2-1.6-2.7-2.8-4.5-3.7c-1.8-1-4.1-1.4-6.7-1.4c-3.1,0-6,0.8-8.8,2.4c-2.8,1.6-5.3,3.6-7.5,6.1
			c-2.1,2.5-3.8,5.3-5.2,8.4c-1.3,3.1-1.9,6.1-1.9,9.2c0,2.4,0.4,4.6,1.1,6.6c0.7,2,1.7,3.7,3,5.3c1.3,1.5,2.8,2.7,4.5,3.6
			c1.8,0.8,3.7,1.2,5.9,1.2c2.4,0,4.5-0.4,6-1.2c1.6-0.8,3-1.6,4.1-2.5L1015.4,531.9z"/>
	</g>
</g>
</svg>
